<svg width="350" height="230" viewBox="0 0 350 230" fill="none" xmlns="http://www.w3.org/2000/svg">
<ellipse cx="169" cy="180.5" rx="118" ry="40.5" fill="#EA6C25"/>
<ellipse cx="78" cy="148" rx="68" ry="73" fill="#515151"/>
<ellipse cx="153.5" cy="66" rx="102.5" ry="56" fill="#21B9B9"/>
<ellipse cx="259.5" cy="83.5" rx="90.5" ry="73.5" fill="#F13556"/>
<path fill-rule="evenodd" clip-rule="evenodd" d="M4 0C1.79086 0 0 1.79087 0 4V226C0 228.209 1.79087 230 4.00001 230H346C348.209 230 350 228.209 350 226V4C350 1.79086 348.209 0 346 0H4ZM58.8418 200.724C55.4666 198.688 53.6328 196.357 52.6135 193.862C51.5416 191.238 51.1178 187.793 51.6665 183.289C52.7948 174.029 57.7628 162.312 65.3174 149.056C72.767 135.984 82.1887 122.325 91.397 109.27C92.7339 107.374 94.0701 105.486 95.3964 103.613L95.3965 103.613C103.066 92.7769 110.404 82.4098 115.625 73.7524C120.156 66.2394 130.855 57.9062 146.746 50.0551C162.286 42.3777 181.513 35.7808 201.387 31.0625C221.259 26.3448 241.448 23.5841 258.865 23.4041C276.665 23.2202 290.134 25.7577 297.715 30.33C301.213 32.4396 303.064 34.7499 304.074 37.0687C305.122 39.4756 305.557 42.5832 305.073 46.6543C304.066 55.1065 299.336 65.8426 291.932 78.1988C284.643 90.3639 275.388 103.106 266.265 115.516C265.606 116.412 264.947 117.308 264.289 118.202C255.985 129.487 247.841 140.556 242.119 150.043C237.52 157.668 226.622 166.455 210.57 174.998C194.866 183.357 175.451 190.844 155.416 196.452C135.376 202.061 115.046 205.696 97.5436 206.525C79.6156 207.375 66.2504 205.192 58.8418 200.724ZM54.1937 208.431C23.3552 189.832 59.6891 138.489 88.0884 98.3586C95.7765 87.4948 102.883 77.4527 107.918 69.1043C131.552 29.9175 263.176 -1.01088 302.363 22.6232C332.436 40.7607 299.329 85.7619 271.621 123.424C263.224 134.838 255.323 145.577 249.826 154.691C226.192 193.878 93.3805 232.065 54.1937 208.431Z" fill="#0B0B25"/>
<path d="M126.141 111.905C125.769 111.049 127.893 109.616 132.515 107.604C137.179 105.574 139.697 104.987 140.069 105.843L152.892 135.304C154.791 139.668 154.784 143.921 152.871 148.062C150.94 152.16 147.214 155.41 141.694 157.812C136.217 160.196 131.131 160.73 126.436 159.415C121.765 158.038 118.377 154.932 116.273 150.096L103.897 121.663C103.525 120.807 105.649 119.373 110.271 117.362C114.935 115.332 117.453 114.745 117.825 115.601L130.424 144.548C130.797 145.404 131.544 145.893 132.666 146.015C133.831 146.119 134.927 145.947 135.954 145.5C136.981 145.053 137.798 144.418 138.406 143.593C139.057 142.75 139.178 141.858 138.768 140.916L126.141 111.905ZM199.011 130.423C199.402 131.322 197.586 132.647 193.564 134.397C189.542 136.148 187.22 136.777 186.598 136.284L167.164 120.923L175.851 140.885C176.187 141.655 174.365 142.906 170.385 144.638C166.448 146.351 164.313 146.823 163.977 146.053L145.289 103.113C145.009 102.472 146.56 101.415 149.94 99.9438C151.267 99.3665 152.863 98.8244 154.729 98.3176C156.619 97.7493 157.897 97.7023 158.561 98.1766L177.435 113.476L168.663 93.3218C168.309 92.5088 170.122 91.2363 174.102 89.5044C178.081 87.7724 180.248 87.3129 180.601 88.1259L199.011 130.423ZM225.414 121.375C219.423 123.982 213.667 124.146 208.146 121.867C202.667 119.569 198.288 114.655 195.011 107.124C191.714 99.5501 191.123 92.9876 193.237 87.4362C195.393 81.8663 199.488 77.7684 205.521 75.1425C211.597 72.4979 217.335 72.2911 222.733 74.5219C228.114 76.7099 232.498 81.6978 235.888 89.4855C239.259 97.2304 239.869 103.836 237.718 109.302C235.549 114.724 231.447 118.749 225.414 121.375ZM210.756 87.5217C208.702 88.4156 207.379 90.1113 206.786 92.6086C206.237 95.0873 206.707 98.0382 208.196 101.461C209.668 104.842 211.467 107.163 213.594 108.426C215.703 109.646 217.827 109.79 219.967 108.859C222.149 107.909 223.503 106.226 224.028 103.808C224.597 101.372 224.136 98.4428 222.646 95.0197C221.156 91.5965 219.305 89.2722 217.092 88.0468C214.922 86.8028 212.81 86.6278 210.756 87.5217Z" fill="white"/>
</svg>
