<svg width="350" height="531" viewBox="0 0 350 531" fill="none" xmlns="http://www.w3.org/2000/svg">
<ellipse cx="118" cy="208.355" rx="76" ry="111.5" fill="#21B9B9"/>
<ellipse cx="232.5" cy="137.355" rx="85.5" ry="88.5" fill="#EA6C25"/>
<ellipse cx="243" cy="316.355" rx="75" ry="128.5" fill="#F13556"/>
<ellipse cx="119" cy="391.181" rx="87" ry="85.6746" fill="#515151"/>
<path fill-rule="evenodd" clip-rule="evenodd" d="M4 0.855225C1.79086 0.855225 0 2.64607 0 4.85521V526.855C0 529.064 1.79087 530.855 4.00001 530.855H346C348.209 530.855 350 529.064 350 526.855V4.85522C350 2.64609 348.209 0.855225 346 0.855225H4ZM254.311 261.066C254.311 278.128 248.348 298.09 237.663 319.051C227.056 339.858 212.268 360.724 195.818 379.323C179.358 397.933 161.579 413.884 145.243 425.053C128.28 436.651 115.082 441.566 107.311 441.566C104.145 441.566 102.681 440.751 101.754 439.978C100.575 438.994 98.9376 436.909 97.4395 432.555C94.2939 423.413 93.3142 409.026 94.0562 389.84C94.6836 373.617 96.4417 355.529 98.2921 336.492L98.2922 336.491L98.2927 336.486C98.5882 333.445 98.8861 330.38 99.1821 327.295C101.303 305.192 103.311 282.167 103.311 261.066C103.311 225.584 125.033 182.064 154.607 146.455C169.166 128.924 185.011 114.08 199.831 103.753C215.135 93.0888 227.447 88.5657 235.311 88.5657C238.724 88.5657 240.865 89.4139 242.476 90.5502C244.246 91.7982 246.269 94.0431 248.251 98.0702C252.411 106.522 254.983 119.863 256.082 137.789C257.16 155.369 256.752 175.634 256.035 197.016C255.881 201.598 255.713 206.236 255.544 210.901L255.544 210.902C254.934 227.734 254.311 244.913 254.311 261.066ZM269.311 261.066C269.311 342.252 157.292 456.566 107.311 456.566C71.544 456.566 77.2366 398.029 83.3677 334.982C85.8045 309.925 88.3106 284.156 88.3106 261.066C88.3106 179.88 185.329 73.5657 235.311 73.5657C275.532 73.5657 273.037 142.414 270.529 211.611C269.92 228.402 269.311 245.213 269.311 261.066Z" fill="#0B0B25"/>
<path d="M146.264 258.522C146.049 259.166 145.941 259.668 145.941 260.026C145.941 260.312 145.906 260.599 145.834 260.885C145.762 261.028 145.727 261.207 145.727 261.422C145.727 261.637 145.691 261.852 145.619 262.067C145.548 262.855 145.476 263.392 145.404 263.678C145.404 263.893 145.404 264.108 145.404 264.323C145.404 264.538 145.404 264.752 145.404 264.967C145.476 265.11 145.512 265.325 145.512 265.612C145.44 266.471 145.404 267.008 145.404 267.223C145.476 267.438 145.512 267.689 145.512 267.975C145.655 268.978 145.727 269.622 145.727 269.909C145.655 270.84 145.619 271.448 145.619 271.735C145.691 271.95 145.655 272.236 145.512 272.594C145.87 273.024 146.192 273.239 146.479 273.239C146.837 273.239 147.016 273.203 147.016 273.131C147.589 273.203 148.018 273.239 148.305 273.239C148.591 273.167 148.878 273.131 149.164 273.131C150.238 273.418 151.133 273.525 151.85 273.454C152.566 273.31 153.282 273.203 153.998 273.131C154.499 273.131 154.786 273.131 154.857 273.131C155.001 273.06 155.144 273.024 155.287 273.024C156.719 273.095 157.829 273.024 158.617 272.809C159.405 272.666 159.942 272.594 160.229 272.594C160.515 272.594 160.801 272.702 161.088 272.916C161.016 273.203 160.98 273.633 160.98 274.206L160.658 276.998C160.587 277.428 160.587 277.894 160.658 278.395C160.801 278.825 160.873 279.29 160.873 279.791C160.801 281.009 160.73 281.94 160.658 282.584C160.658 283.229 160.73 283.838 160.873 284.411C160.587 284.912 160.408 285.198 160.336 285.27C160.264 285.342 160.229 285.449 160.229 285.592C159.369 285.735 158.868 285.843 158.725 285.914C158.581 285.914 158.438 285.914 158.295 285.914C157.292 285.7 156.576 285.628 156.146 285.7C155.788 285.771 155.466 285.735 155.18 285.592C154.249 285.592 153.676 285.592 153.461 285.592C153.318 285.521 153.139 285.485 152.924 285.485C152.064 285.413 151.527 285.377 151.312 285.377C151.169 285.377 151.026 285.342 150.883 285.27C150.238 285.127 149.737 285.055 149.379 285.055C149.021 284.984 148.699 284.984 148.412 285.055C147.696 285.198 147.159 285.27 146.801 285.27C146.443 285.198 146.156 285.27 145.941 285.485C145.798 286.631 145.691 287.454 145.619 287.956C145.548 288.457 145.512 288.958 145.512 289.459C145.512 290.032 145.512 290.641 145.512 291.286C145.583 291.859 145.619 292.431 145.619 293.004C145.619 293.577 145.583 294.114 145.512 294.616C145.44 295.045 145.44 295.511 145.512 296.012C145.727 296.513 145.798 296.836 145.727 296.979C145.727 297.051 145.727 297.122 145.727 297.194C145.798 297.838 145.798 298.304 145.727 298.59C145.655 298.805 145.655 299.056 145.727 299.342C145.798 300.273 145.619 300.81 145.189 300.954C144.831 301.097 144.545 301.061 144.33 300.846C143.972 300.846 143.507 300.882 142.934 300.954C142.432 300.954 141.967 300.882 141.537 300.739C141.036 300.954 140.499 300.989 139.926 300.846C139.281 300.703 138.852 300.667 138.637 300.739C138.422 300.81 138.207 300.81 137.992 300.739C137.634 300.739 137.312 300.703 137.025 300.631C136.811 300.56 136.56 300.488 136.273 300.416C135.844 300.416 135.414 300.452 134.984 300.524C134.555 300.524 134.125 300.524 133.695 300.524C133.194 299.951 132.872 299.557 132.729 299.342C132.657 299.127 132.621 298.948 132.621 298.805C132.764 298.232 132.872 297.874 132.943 297.731C133.015 297.516 133.051 297.301 133.051 297.086C133.122 296.442 133.122 296.084 133.051 296.012C133.051 295.941 133.051 295.833 133.051 295.69C132.979 294.831 132.943 294.258 132.943 293.971C133.015 293.685 133.051 293.434 133.051 293.219C133.051 292.718 133.015 292.396 132.943 292.252C132.872 292.038 132.836 291.823 132.836 291.608C132.836 291.25 132.8 290.892 132.729 290.534C132.729 290.104 132.764 289.782 132.836 289.567C132.908 289.28 132.872 288.994 132.729 288.707C132.657 288.349 132.693 287.991 132.836 287.633C132.693 287.204 132.585 286.845 132.514 286.559C132.514 286.201 132.549 285.843 132.621 285.485C132.406 285.342 132.191 285.306 131.977 285.377C131.833 285.377 131.618 285.377 131.332 285.377C130.473 285.306 130.043 285.306 130.043 285.377C130.043 285.377 130.007 285.377 129.936 285.377C129.792 285.377 129.47 285.377 128.969 285.377C128.539 285.306 128.145 285.27 127.787 285.27L126.605 285.377C125.961 285.377 125.567 285.342 125.424 285.27C125.352 285.198 125.245 285.163 125.102 285.163L123.92 285.377C123.633 285.449 123.311 285.449 122.953 285.377C122.667 285.234 122.38 285.163 122.094 285.163C121.592 285.163 121.199 285.163 120.912 285.163C120.697 285.091 120.411 285.055 120.053 285.055C119.838 285.055 119.623 285.091 119.408 285.163C119.193 285.163 118.979 285.127 118.764 285.055C117.833 285.198 117.367 285.163 117.367 284.948C117.367 284.661 117.26 284.446 117.045 284.303C117.188 283.587 117.224 283.122 117.152 282.907C117.152 282.692 117.152 282.477 117.152 282.262C117.224 281.474 117.188 280.937 117.045 280.651C117.188 280.436 117.188 280.257 117.045 280.114C116.973 279.899 116.938 279.684 116.938 279.469C116.866 278.896 116.83 278.467 116.83 278.18C117.188 276.963 117.331 275.96 117.26 275.172C117.188 274.313 117.117 273.561 117.045 272.916C117.833 272.988 118.262 273.06 118.334 273.131C118.406 273.203 118.513 273.275 118.656 273.346C119.372 273.346 119.874 273.275 120.16 273.131C120.805 273.131 121.163 273.167 121.234 273.239C121.306 273.239 121.413 273.239 121.557 273.239C121.771 273.239 121.986 273.239 122.201 273.239C122.488 273.239 122.774 273.203 123.061 273.131H126.176C127.107 273.275 127.644 273.382 127.787 273.454C128.002 273.525 128.181 273.597 128.324 273.668C128.611 273.597 128.826 273.597 128.969 273.668C129.112 273.668 129.327 273.668 129.613 273.668L131.117 273.561C132.12 273.489 132.908 273.382 133.48 273.239C133.48 272.737 133.552 272.344 133.695 272.057C133.552 271.699 133.48 271.377 133.48 271.09C133.48 270.804 133.48 270.41 133.48 269.909C133.552 269.264 133.588 268.691 133.588 268.19C133.66 267.617 133.66 267.044 133.588 266.471C133.588 266.113 133.588 265.719 133.588 265.289C133.588 264.788 133.552 264.359 133.48 264C133.337 263.141 133.301 262.604 133.373 262.389C133.516 262.103 133.588 261.78 133.588 261.422C133.588 261.207 133.516 260.814 133.373 260.241C133.158 259.453 133.051 259.023 133.051 258.952C133.122 258.88 133.158 258.773 133.158 258.629C133.946 258.128 134.411 257.913 134.555 257.985C134.698 258.056 134.841 258.092 134.984 258.092C135.701 257.949 136.059 257.913 136.059 257.985C136.13 257.985 136.202 257.985 136.273 257.985C136.918 257.77 137.24 257.698 137.24 257.77C137.24 257.77 137.312 257.77 137.455 257.77C137.956 257.77 138.422 257.806 138.852 257.877C139.353 257.949 139.89 258.021 140.463 258.092C141.179 258.021 141.573 258.021 141.645 258.092C141.788 258.092 141.931 258.092 142.074 258.092C143.148 258.164 143.865 258.2 144.223 258.2C144.652 258.2 145.118 258.128 145.619 257.985L146.264 258.522ZM214.047 275.065C214.835 274.993 215.336 274.993 215.551 275.065C215.766 275.065 215.945 275.065 216.088 275.065C217.019 274.993 217.699 274.886 218.129 274.743C218.415 274.886 218.702 274.957 218.988 274.957C219.275 274.957 219.633 274.993 220.062 275.065C220.779 275.924 221.137 276.605 221.137 277.106C221.208 277.607 221.173 278.144 221.029 278.717C221.029 279.004 220.993 279.254 220.922 279.469C220.922 279.612 220.922 279.791 220.922 280.006C220.922 280.221 220.958 280.436 221.029 280.651C221.101 280.866 221.101 281.081 221.029 281.295L220.922 282.799C220.922 282.942 220.922 283.193 220.922 283.551C220.993 283.838 220.993 284.017 220.922 284.088C220.85 284.804 220.85 285.27 220.922 285.485C220.993 285.628 221.029 285.843 221.029 286.129C220.958 286.774 220.886 287.49 220.814 288.278C220.814 288.994 220.886 289.638 221.029 290.211C221.173 290.999 221.208 291.465 221.137 291.608C220.564 292.396 220.17 292.825 219.955 292.897C219.74 292.897 219.633 292.933 219.633 293.004C219.203 292.789 218.738 292.789 218.236 293.004C217.735 293.219 217.27 293.148 216.84 292.789C216.339 293.004 215.837 292.897 215.336 292.467C215.121 292.539 214.906 292.61 214.691 292.682C214.477 292.682 214.298 292.789 214.154 293.004C214.083 293.362 214.047 293.72 214.047 294.079C214.047 294.437 214.047 294.831 214.047 295.26C214.047 296.191 214.083 296.907 214.154 297.409C214.226 297.838 214.262 298.232 214.262 298.59C214.333 298.877 214.333 299.127 214.262 299.342C214.262 299.557 214.262 299.808 214.262 300.094C214.262 301.168 214.369 302.171 214.584 303.102C214.656 303.532 214.727 304.105 214.799 304.821C214.87 305.465 214.978 306.074 215.121 306.647C214.978 307.077 214.942 307.542 215.014 308.043C215.085 308.473 215.121 308.903 215.121 309.332C215.121 309.691 215.121 309.977 215.121 310.192C215.193 310.407 215.193 310.657 215.121 310.944V312.77C214.62 313.414 214.19 313.737 213.832 313.737C213.546 313.737 213.331 313.808 213.188 313.952C212.758 313.808 212.292 313.773 211.791 313.844C211.29 313.987 210.86 313.987 210.502 313.844C210.072 313.987 209.607 314.023 209.105 313.952C208.604 313.952 208.031 313.987 207.387 314.059H204.916C203.77 314.131 202.982 314.131 202.553 314.059C202.195 313.987 201.801 313.952 201.371 313.952C201.085 313.952 200.798 313.987 200.512 314.059C200.297 314.131 200.082 314.131 199.867 314.059C199.079 313.916 198.578 313.844 198.363 313.844C197.79 313.701 197.396 313.594 197.182 313.522C197.038 313.307 196.895 313.092 196.752 312.877C196.609 312.663 196.465 312.484 196.322 312.34C196.394 311.409 196.43 310.836 196.43 310.622C196.43 310.407 196.358 310.228 196.215 310.084C196.43 309.511 196.537 309.082 196.537 308.795C196.537 308.294 196.501 307.793 196.43 307.291C196.43 306.79 196.394 306.289 196.322 305.788C196.465 304.928 196.537 304.319 196.537 303.961C196.537 303.603 196.537 303.317 196.537 303.102C196.465 302.457 196.465 302.099 196.537 302.028C196.609 301.956 196.645 301.849 196.645 301.706C196.645 300.989 196.609 300.595 196.537 300.524C196.537 300.452 196.537 300.381 196.537 300.309C196.68 299.808 196.752 299.414 196.752 299.127C196.824 298.841 196.859 298.554 196.859 298.268C197.003 297.265 197.038 296.263 196.967 295.26C196.967 294.258 196.931 293.183 196.859 292.038C196.358 291.894 195.893 291.859 195.463 291.93C195.033 291.93 194.532 291.93 193.959 291.93C193.458 291.93 192.849 291.859 192.133 291.715L189.125 291.608C188.409 291.465 188.015 291.429 187.943 291.5C187.872 291.5 187.764 291.5 187.621 291.5C187.048 291.5 186.726 291.5 186.654 291.5C186.654 291.429 186.583 291.393 186.439 291.393C186.153 291.393 185.902 291.393 185.688 291.393C185.544 291.393 185.401 291.321 185.258 291.178C184.685 291.321 184.148 291.357 183.646 291.286C183.145 291.214 182.68 291.178 182.25 291.178C182.035 291.178 181.82 291.214 181.605 291.286C181.462 291.357 181.283 291.393 181.068 291.393C180.925 291.393 180.674 291.393 180.316 291.393C179.958 291.393 179.708 291.429 179.564 291.5C179.278 291.5 179.027 291.536 178.812 291.608C178.598 291.608 178.347 291.608 178.061 291.608C177.774 291.679 177.488 291.787 177.201 291.93C176.986 292.002 176.7 291.966 176.342 291.823C175.554 291.679 175.16 291.644 175.16 291.715C175.16 291.715 175.124 291.715 175.053 291.715C174.981 291.715 174.802 291.715 174.516 291.715C174.301 291.644 174.05 291.608 173.764 291.608C173.334 291.035 173.048 290.605 172.904 290.319C172.761 290.032 172.618 289.71 172.475 289.352C172.117 289.066 171.83 288.707 171.615 288.278C171.4 287.848 171.114 287.49 170.756 287.204C170.613 286.917 170.469 286.666 170.326 286.452C170.183 286.165 170.04 285.914 169.896 285.7C169.682 285.342 169.431 284.948 169.145 284.518C168.858 284.017 168.715 283.73 168.715 283.659C168.786 283.515 168.786 283.408 168.715 283.336C168.214 282.692 167.927 282.298 167.855 282.155C167.855 282.011 167.82 281.868 167.748 281.725C167.39 280.937 167.104 280.472 166.889 280.329C166.674 280.185 166.566 279.935 166.566 279.577C165.993 279.004 165.707 278.681 165.707 278.61C165.635 278.395 165.564 278.216 165.492 278.073C165.421 277.929 165.421 277.715 165.492 277.428C165.635 276.855 165.707 276.533 165.707 276.461C165.779 276.318 165.814 276.175 165.814 276.032C165.958 275.316 166.029 274.814 166.029 274.528C166.029 274.17 166.208 273.919 166.566 273.776C166.71 273.489 166.853 273.275 166.996 273.131C167.139 272.988 167.283 272.809 167.426 272.594C167.641 272.236 167.784 271.985 167.855 271.842C167.927 271.627 167.999 271.448 168.07 271.305C168.858 270.374 169.359 269.622 169.574 269.049C170.004 268.548 170.255 268.297 170.326 268.297C170.469 268.226 170.541 268.154 170.541 268.082C170.899 267.51 171.114 267.187 171.186 267.116C171.329 267.044 171.472 266.937 171.615 266.793L172.26 265.719C172.618 265.146 172.868 264.824 173.012 264.752C173.155 264.609 173.262 264.466 173.334 264.323C173.62 263.75 173.943 263.356 174.301 263.141C174.659 262.425 174.874 262.067 174.945 262.067C175.017 261.995 175.089 261.888 175.16 261.745C175.59 261.028 175.805 260.706 175.805 260.778C175.805 260.778 175.876 260.742 176.02 260.67C176.234 260.312 176.378 260.097 176.449 260.026C176.521 259.954 176.628 259.847 176.771 259.704C176.915 259.56 177.022 259.381 177.094 259.166C177.165 258.88 177.344 258.737 177.631 258.737C178.061 258.021 178.347 257.591 178.49 257.448C178.705 257.304 178.884 257.125 179.027 256.911L179.672 255.729L181.176 254.118C181.677 253.401 181.964 253.043 182.035 253.043C182.393 252.399 182.608 252.077 182.68 252.077C182.751 252.005 182.823 251.933 182.895 251.862C183.181 251.146 183.324 250.788 183.324 250.788C183.396 250.788 183.432 250.752 183.432 250.68C183.575 250.537 183.718 250.322 183.861 250.036C184.076 249.749 184.291 249.534 184.506 249.391C184.506 249.033 184.613 248.818 184.828 248.747C185.115 248.603 185.258 248.353 185.258 247.995L186.01 247.028C186.296 246.67 186.475 246.383 186.547 246.168C186.69 245.882 186.833 245.631 186.977 245.416C187.335 244.7 187.549 244.306 187.621 244.235C187.764 244.163 187.872 244.056 187.943 243.913L188.803 242.946C188.946 242.803 189.053 242.623 189.125 242.409C189.197 242.122 189.34 241.943 189.555 241.872C189.913 241.084 190.128 240.654 190.199 240.582C190.271 240.439 190.342 240.296 190.414 240.153C190.844 239.58 191.059 239.258 191.059 239.186C191.13 239.043 191.238 238.935 191.381 238.864C191.667 238.219 191.846 237.861 191.918 237.789C192.419 237.073 192.706 236.644 192.777 236.5C193.064 235.999 193.243 235.748 193.314 235.748C193.386 235.677 193.458 235.569 193.529 235.426C193.816 234.782 193.995 234.459 194.066 234.459C194.21 234.388 194.353 234.316 194.496 234.245C194.854 234.03 195.212 233.922 195.57 233.922C195.928 233.922 196.322 233.922 196.752 233.922C197.396 233.994 197.719 233.994 197.719 233.922C197.79 233.851 197.898 233.815 198.041 233.815C198.256 233.815 198.471 233.851 198.686 233.922C198.9 233.994 199.079 234.03 199.223 234.03C199.724 234.101 200.189 234.137 200.619 234.137C201.12 234.066 201.658 233.994 202.23 233.922C202.589 233.922 202.947 233.922 203.305 233.922C203.734 233.922 204.128 233.886 204.486 233.815C204.916 233.815 205.202 233.815 205.346 233.815C205.561 233.743 205.74 233.743 205.883 233.815C206.456 233.815 206.957 233.815 207.387 233.815C207.888 233.743 208.425 233.707 208.998 233.707C209.857 233.636 210.359 233.6 210.502 233.6C210.645 233.528 210.86 233.528 211.146 233.6C211.863 234.03 212.364 234.316 212.65 234.459C212.937 234.603 213.152 235.068 213.295 235.856C213.223 236.572 213.188 237.002 213.188 237.145C213.259 237.217 213.295 237.324 213.295 237.467C213.295 237.682 213.259 237.897 213.188 238.112C213.188 238.327 213.188 238.506 213.188 238.649C213.188 239.007 213.152 239.293 213.08 239.508C213.08 239.651 213.044 239.831 212.973 240.045C212.973 240.833 212.973 241.227 212.973 241.227C212.973 241.442 212.937 241.657 212.865 241.872C212.865 242.086 212.865 242.301 212.865 242.516C212.794 243.805 212.758 244.7 212.758 245.202C212.829 245.631 212.794 246.097 212.65 246.598C212.65 247.243 212.686 247.636 212.758 247.78C212.829 247.923 212.865 248.066 212.865 248.209V249.928C212.937 250.501 212.937 251.002 212.865 251.432C212.794 251.862 212.794 252.363 212.865 252.936C212.937 253.652 212.973 254.332 212.973 254.977C212.973 255.55 213.044 256.123 213.188 256.696C212.973 257.484 212.901 258.128 212.973 258.629C213.044 259.059 213.08 259.489 213.08 259.918C213.08 260.205 213.08 260.456 213.08 260.67C213.08 260.885 213.08 261.064 213.08 261.207L213.295 267.331C213.367 267.545 213.367 267.832 213.295 268.19C213.295 268.476 213.295 268.799 213.295 269.157L213.617 272.809C213.689 273.167 213.725 273.561 213.725 273.991C213.796 274.349 213.904 274.707 214.047 275.065ZM195.785 260.133C195.284 260.778 194.997 261.207 194.926 261.422C194.854 261.637 194.747 261.816 194.604 261.959C194.46 262.103 194.317 262.246 194.174 262.389C194.031 262.532 193.887 262.676 193.744 262.819C193.028 263.607 192.562 264.215 192.348 264.645C192.133 265.003 191.846 265.325 191.488 265.612C191.417 265.898 191.309 266.113 191.166 266.256C191.023 266.4 190.915 266.579 190.844 266.793C190.271 267.366 189.949 267.689 189.877 267.76C189.877 267.832 189.841 267.939 189.77 268.082C189.268 268.727 188.946 269.157 188.803 269.372C188.731 269.515 188.624 269.694 188.48 269.909C187.478 270.768 186.762 271.556 186.332 272.272C185.759 272.845 185.437 273.203 185.365 273.346C185.294 273.489 185.222 273.633 185.15 273.776C184.721 274.206 184.47 274.528 184.398 274.743C184.971 275.101 185.401 275.244 185.688 275.172C186.046 275.101 186.368 275.065 186.654 275.065C187.37 275.28 187.729 275.387 187.729 275.387C187.729 275.316 187.764 275.28 187.836 275.28H189.447H190.736H191.918C192.562 275.423 192.992 275.495 193.207 275.495C193.493 275.423 193.78 275.387 194.066 275.387C194.353 275.387 194.604 275.351 194.818 275.28C195.033 275.208 195.248 275.172 195.463 275.172C195.749 275.172 196 275.244 196.215 275.387C196.501 275.459 196.788 275.423 197.074 275.28C197.146 275.065 197.146 274.886 197.074 274.743C197.074 274.528 197.074 274.277 197.074 273.991L197.182 271.842V270.661C197.038 270.016 196.967 269.694 196.967 269.694C197.038 269.622 197.074 269.551 197.074 269.479C197.074 268.834 197.038 268.512 196.967 268.512C196.895 268.441 196.859 268.333 196.859 268.19C196.931 267.545 196.967 267.187 196.967 267.116C197.038 267.044 197.074 266.937 197.074 266.793C197.003 266.077 196.967 265.612 196.967 265.397C197.038 265.11 197.074 264.896 197.074 264.752C197.074 263.678 197.038 262.998 196.967 262.711C196.895 262.353 196.859 262.031 196.859 261.745C196.931 261.172 196.895 260.599 196.752 260.026L195.785 260.133Z" fill="white"/>
<path d="M46.8926 56.9529C46.7949 57.2458 46.7461 57.4737 46.7461 57.6365C46.7461 57.7667 46.7298 57.8969 46.6973 58.0271C46.6647 58.0922 46.6484 58.1736 46.6484 58.2712C46.6484 58.3689 46.6322 58.4666 46.5996 58.5642C46.5671 58.9223 46.5345 59.1664 46.502 59.2966C46.502 59.3943 46.502 59.4919 46.502 59.5896C46.502 59.6873 46.502 59.7849 46.502 59.8826C46.5345 59.9477 46.5508 60.0453 46.5508 60.1755C46.5182 60.5662 46.502 60.8103 46.502 60.908C46.5345 61.0056 46.5508 61.1195 46.5508 61.2498C46.6159 61.7055 46.6484 61.9985 46.6484 62.1287C46.6159 62.5518 46.5996 62.8285 46.5996 62.9587C46.6322 63.0564 46.6159 63.1866 46.5508 63.3494C46.7135 63.5447 46.86 63.6423 46.9902 63.6423C47.153 63.6423 47.2344 63.6261 47.2344 63.5935C47.4948 63.6261 47.6901 63.6423 47.8203 63.6423C47.9505 63.6098 48.0807 63.5935 48.2109 63.5935C48.6992 63.7237 49.1061 63.7725 49.4316 63.74C49.7572 63.6749 50.0827 63.6261 50.4082 63.5935C50.6361 63.5935 50.7663 63.5935 50.7988 63.5935C50.8639 63.561 50.929 63.5447 50.9941 63.5447C51.6452 63.5772 52.1497 63.5447 52.5078 63.447C52.8659 63.3819 53.11 63.3494 53.2402 63.3494C53.3704 63.3494 53.5007 63.3982 53.6309 63.4958C53.5983 63.6261 53.582 63.8214 53.582 64.0818L53.4355 65.3513C53.403 65.5466 53.403 65.7582 53.4355 65.9861C53.5007 66.1814 53.5332 66.393 53.5332 66.6208C53.5007 67.1742 53.4681 67.5974 53.4355 67.8904C53.4355 68.1833 53.4681 68.46 53.5332 68.7205C53.403 68.9483 53.3216 69.0785 53.2891 69.1111C53.2565 69.1436 53.2402 69.1925 53.2402 69.2576C52.8496 69.3227 52.6217 69.3715 52.5566 69.4041C52.4915 69.4041 52.4264 69.4041 52.3613 69.4041C51.9056 69.3064 51.5801 69.2738 51.3848 69.3064C51.222 69.3389 51.0755 69.3227 50.9453 69.2576C50.5221 69.2576 50.2617 69.2576 50.1641 69.2576C50.099 69.225 50.0176 69.2087 49.9199 69.2087C49.5293 69.1762 49.2852 69.1599 49.1875 69.1599C49.1224 69.1599 49.0573 69.1436 48.9922 69.1111C48.6992 69.046 48.4714 69.0134 48.3086 69.0134C48.1458 68.9809 47.9993 68.9809 47.8691 69.0134C47.5436 69.0785 47.2995 69.1111 47.1367 69.1111C46.974 69.0785 46.8438 69.1111 46.7461 69.2087C46.681 69.7296 46.6322 70.1039 46.5996 70.3318C46.5671 70.5597 46.5508 70.7875 46.5508 71.0154C46.5508 71.2758 46.5508 71.5525 46.5508 71.8455C46.5833 72.1059 46.5996 72.3663 46.5996 72.6267C46.5996 72.8871 46.5833 73.1313 46.5508 73.3591C46.5182 73.5544 46.5182 73.766 46.5508 73.9939C46.6484 74.2218 46.681 74.3682 46.6484 74.4333C46.6484 74.4659 46.6484 74.4985 46.6484 74.531C46.681 74.824 46.681 75.0356 46.6484 75.1658C46.6159 75.2634 46.6159 75.3774 46.6484 75.5076C46.681 75.9307 46.5996 76.1749 46.4043 76.24C46.2415 76.3051 46.1113 76.2888 46.0137 76.1912C45.8509 76.1912 45.6393 76.2074 45.3789 76.24C45.151 76.24 44.9395 76.2074 44.7441 76.1423C44.5163 76.24 44.2721 76.2563 44.0117 76.1912C43.7188 76.1261 43.5234 76.1098 43.4258 76.1423C43.3281 76.1749 43.2305 76.1749 43.1328 76.1423C42.9701 76.1423 42.8236 76.1261 42.6934 76.0935C42.5957 76.061 42.4818 76.0284 42.3516 75.9958C42.1562 75.9958 41.9609 76.0121 41.7656 76.0447C41.5703 76.0447 41.375 76.0447 41.1797 76.0447C40.9518 75.7843 40.8053 75.6052 40.7402 75.5076C40.7077 75.4099 40.6914 75.3285 40.6914 75.2634C40.7565 75.003 40.8053 74.8403 40.8379 74.7751C40.8704 74.6775 40.8867 74.5798 40.8867 74.4822C40.9193 74.1892 40.9193 74.0264 40.8867 73.9939C40.8867 73.9613 40.8867 73.9125 40.8867 73.8474C40.8542 73.4568 40.8379 73.1964 40.8379 73.0662C40.8704 72.936 40.8867 72.822 40.8867 72.7244C40.8867 72.4965 40.8704 72.35 40.8379 72.2849C40.8053 72.1873 40.7891 72.0896 40.7891 71.9919C40.7891 71.8292 40.7728 71.6664 40.7402 71.5037C40.7402 71.3083 40.7565 71.1619 40.7891 71.0642C40.8216 70.934 40.8053 70.8038 40.7402 70.6736C40.7077 70.5108 40.724 70.3481 40.7891 70.1853C40.724 69.99 40.6751 69.8272 40.6426 69.697C40.6426 69.5343 40.6589 69.3715 40.6914 69.2087C40.5938 69.1436 40.4961 69.1274 40.3984 69.1599C40.3333 69.1599 40.2357 69.1599 40.1055 69.1599C39.7148 69.1274 39.5195 69.1274 39.5195 69.1599C39.5195 69.1599 39.5033 69.1599 39.4707 69.1599C39.4056 69.1599 39.2591 69.1599 39.0312 69.1599C38.8359 69.1274 38.6569 69.1111 38.4941 69.1111L37.957 69.1599C37.6641 69.1599 37.485 69.1436 37.4199 69.1111C37.3874 69.0785 37.3385 69.0623 37.2734 69.0623L36.7363 69.1599C36.6061 69.1925 36.4596 69.1925 36.2969 69.1599C36.1667 69.0948 36.0365 69.0623 35.9062 69.0623C35.6784 69.0623 35.4993 69.0623 35.3691 69.0623C35.2715 69.0297 35.1413 69.0134 34.9785 69.0134C34.8809 69.0134 34.7832 69.0297 34.6855 69.0623C34.5879 69.0623 34.4902 69.046 34.3926 69.0134C33.9694 69.0785 33.7578 69.0623 33.7578 68.9646C33.7578 68.8344 33.709 68.7367 33.6113 68.6716C33.6764 68.3461 33.6927 68.1345 33.6602 68.0369C33.6602 67.9392 33.6602 67.8416 33.6602 67.7439C33.6927 67.3858 33.6764 67.1417 33.6113 67.0115C33.6764 66.9138 33.6764 66.8324 33.6113 66.7673C33.5788 66.6697 33.5625 66.572 33.5625 66.4744C33.5299 66.2139 33.5137 66.0186 33.5137 65.8884C33.6764 65.335 33.7415 64.8793 33.709 64.5212C33.6764 64.1306 33.6439 63.7888 33.6113 63.4958C33.9694 63.5284 34.1647 63.561 34.1973 63.5935C34.2298 63.6261 34.2786 63.6586 34.3438 63.6912C34.6693 63.6912 34.8971 63.6586 35.0273 63.5935C35.3203 63.5935 35.4831 63.6098 35.5156 63.6423C35.5482 63.6423 35.597 63.6423 35.6621 63.6423C35.7598 63.6423 35.8574 63.6423 35.9551 63.6423C36.0853 63.6423 36.2155 63.6261 36.3457 63.5935H37.7617C38.1849 63.6586 38.429 63.7074 38.4941 63.74C38.5918 63.7725 38.6732 63.8051 38.7383 63.8376C38.8685 63.8051 38.9661 63.8051 39.0312 63.8376C39.0964 63.8376 39.194 63.8376 39.3242 63.8376L40.0078 63.7888C40.4635 63.7563 40.8216 63.7074 41.082 63.6423C41.082 63.4145 41.1146 63.2354 41.1797 63.1052C41.1146 62.9425 41.082 62.796 41.082 62.6658C41.082 62.5356 41.082 62.3565 41.082 62.1287C41.1146 61.8357 41.1309 61.5753 41.1309 61.3474C41.1634 61.087 41.1634 60.8266 41.1309 60.5662C41.1309 60.4034 41.1309 60.2244 41.1309 60.0291C41.1309 59.8012 41.1146 59.6059 41.082 59.4431C41.0169 59.0525 41.0007 58.8083 41.0332 58.7107C41.0983 58.5805 41.1309 58.434 41.1309 58.2712C41.1309 58.1736 41.0983 57.9945 41.0332 57.7341C40.9355 57.3761 40.8867 57.1807 40.8867 57.1482C40.9193 57.1156 40.9355 57.0668 40.9355 57.0017C41.2936 56.7738 41.5052 56.6762 41.5703 56.7087C41.6354 56.7413 41.7005 56.7576 41.7656 56.7576C42.0911 56.6925 42.2539 56.6762 42.2539 56.7087C42.2865 56.7087 42.319 56.7087 42.3516 56.7087C42.6445 56.6111 42.791 56.5785 42.791 56.6111C42.791 56.6111 42.8236 56.6111 42.8887 56.6111C43.1165 56.6111 43.3281 56.6274 43.5234 56.6599C43.7513 56.6925 43.9954 56.725 44.2559 56.7576C44.5814 56.725 44.7604 56.725 44.793 56.7576C44.8581 56.7576 44.9232 56.7576 44.9883 56.7576C45.4766 56.7901 45.8021 56.8064 45.9648 56.8064C46.1602 56.8064 46.3717 56.7738 46.5996 56.7087L46.8926 56.9529ZM77.7031 64.4724C78.0612 64.4399 78.2891 64.4399 78.3867 64.4724C78.4844 64.4724 78.5658 64.4724 78.6309 64.4724C79.054 64.4399 79.3633 64.391 79.5586 64.3259C79.6888 64.391 79.819 64.4236 79.9492 64.4236C80.0794 64.4236 80.2422 64.4399 80.4375 64.4724C80.763 64.863 80.9258 65.1723 80.9258 65.4001C80.9583 65.628 80.9421 65.8722 80.877 66.1326C80.877 66.2628 80.8607 66.3767 80.8281 66.4744C80.8281 66.5395 80.8281 66.6208 80.8281 66.7185C80.8281 66.8162 80.8444 66.9138 80.877 67.0115C80.9095 67.1091 80.9095 67.2068 80.877 67.3044L80.8281 67.988C80.8281 68.0531 80.8281 68.1671 80.8281 68.3298C80.8607 68.46 80.8607 68.5414 80.8281 68.574C80.7956 68.8995 80.7956 69.1111 80.8281 69.2087C80.8607 69.2738 80.877 69.3715 80.877 69.5017C80.8444 69.7947 80.8118 70.1202 80.7793 70.4783C80.7793 70.8038 80.8118 71.0968 80.877 71.3572C80.9421 71.7153 80.9583 71.9268 80.9258 71.9919C80.6654 72.35 80.4863 72.5453 80.3887 72.5779C80.291 72.5779 80.2422 72.5942 80.2422 72.6267C80.0469 72.5291 79.8353 72.5291 79.6074 72.6267C79.3796 72.7244 79.168 72.6918 78.9727 72.5291C78.7448 72.6267 78.5169 72.5779 78.2891 72.3826C78.1914 72.4151 78.0938 72.4477 77.9961 72.4802C77.8984 72.4802 77.8171 72.5291 77.752 72.6267C77.7194 72.7895 77.7031 72.9522 77.7031 73.115C77.7031 73.2778 77.7031 73.4568 77.7031 73.6521C77.7031 74.0753 77.7194 74.4008 77.752 74.6287C77.7845 74.824 77.8008 75.003 77.8008 75.1658C77.8333 75.296 77.8333 75.4099 77.8008 75.5076C77.8008 75.6052 77.8008 75.7192 77.8008 75.8494C77.8008 76.3376 77.8496 76.7934 77.9473 77.2166C77.9798 77.4119 78.0124 77.6723 78.0449 77.9978C78.0775 78.2908 78.1263 78.5675 78.1914 78.8279C78.1263 79.0232 78.11 79.2348 78.1426 79.4626C78.1751 79.658 78.1914 79.8533 78.1914 80.0486C78.1914 80.2113 78.1914 80.3416 78.1914 80.4392C78.224 80.5369 78.224 80.6508 78.1914 80.781V81.6111C77.9635 81.9041 77.7682 82.0505 77.6055 82.0505C77.4753 82.0505 77.3776 82.0831 77.3125 82.1482C77.1172 82.0831 76.9056 82.0668 76.6777 82.0994C76.4499 82.1645 76.2546 82.1645 76.0918 82.0994C75.8965 82.1645 75.6849 82.1807 75.457 82.1482C75.2292 82.1482 74.9688 82.1645 74.6758 82.197H73.5527C73.0319 82.2296 72.6738 82.2296 72.4785 82.197C72.3158 82.1645 72.1367 82.1482 71.9414 82.1482C71.8112 82.1482 71.681 82.1645 71.5508 82.197C71.4531 82.2296 71.3555 82.2296 71.2578 82.197C70.8997 82.1319 70.6719 82.0994 70.5742 82.0994C70.3138 82.0343 70.1348 81.9854 70.0371 81.9529C69.972 81.8552 69.9069 81.7576 69.8418 81.6599C69.7767 81.5623 69.7116 81.4809 69.6465 81.4158C69.679 80.9926 69.6953 80.7322 69.6953 80.6345C69.6953 80.5369 69.6628 80.4555 69.5977 80.3904C69.6953 80.13 69.7441 79.9347 69.7441 79.8044C69.7441 79.5766 69.7279 79.3487 69.6953 79.1208C69.6953 78.893 69.679 78.6651 69.6465 78.4373C69.7116 78.0466 69.7441 77.7699 69.7441 77.6072C69.7441 77.4444 69.7441 77.3142 69.7441 77.2166C69.7116 76.9236 69.7116 76.7608 69.7441 76.7283C69.7767 76.6957 69.793 76.6469 69.793 76.5818C69.793 76.2563 69.7767 76.0772 69.7441 76.0447C69.7441 76.0121 69.7441 75.9796 69.7441 75.947C69.8092 75.7192 69.8418 75.5401 69.8418 75.4099C69.8743 75.2797 69.8906 75.1495 69.8906 75.0193C69.9557 74.5636 69.972 74.1078 69.9395 73.6521C69.9395 73.1964 69.9232 72.7081 69.8906 72.1873C69.6628 72.1222 69.4512 72.1059 69.2559 72.1384C69.0605 72.1384 68.8327 72.1384 68.5723 72.1384C68.3444 72.1384 68.0677 72.1059 67.7422 72.0408L66.375 71.9919C66.0495 71.9268 65.8704 71.9106 65.8379 71.9431C65.8053 71.9431 65.7565 71.9431 65.6914 71.9431C65.431 71.9431 65.2845 71.9431 65.252 71.9431C65.252 71.9106 65.2194 71.8943 65.1543 71.8943C65.0241 71.8943 64.9102 71.8943 64.8125 71.8943C64.7474 71.8943 64.6823 71.8617 64.6172 71.7966C64.3568 71.8617 64.1126 71.878 63.8848 71.8455C63.6569 71.8129 63.4453 71.7966 63.25 71.7966C63.1523 71.7966 63.0547 71.8129 62.957 71.8455C62.8919 71.878 62.8105 71.8943 62.7129 71.8943C62.6478 71.8943 62.5339 71.8943 62.3711 71.8943C62.2083 71.8943 62.0944 71.9106 62.0293 71.9431C61.8991 71.9431 61.7852 71.9594 61.6875 71.9919C61.5898 71.9919 61.4759 71.9919 61.3457 71.9919C61.2155 72.0245 61.0853 72.0733 60.9551 72.1384C60.8574 72.171 60.7272 72.1547 60.5645 72.0896C60.2064 72.0245 60.0273 72.0082 60.0273 72.0408C60.0273 72.0408 60.0111 72.0408 59.9785 72.0408C59.946 72.0408 59.8646 72.0408 59.7344 72.0408C59.6367 72.0082 59.5228 71.9919 59.3926 71.9919C59.1973 71.7315 59.0671 71.5362 59.002 71.406C58.9368 71.2758 58.8717 71.1293 58.8066 70.9666C58.6439 70.8363 58.5137 70.6736 58.416 70.4783C58.3184 70.283 58.1882 70.1202 58.0254 69.99C57.9603 69.8598 57.8952 69.7458 57.8301 69.6482C57.765 69.518 57.6999 69.4041 57.6348 69.3064C57.5371 69.1436 57.4232 68.9646 57.293 68.7693C57.1628 68.5414 57.0977 68.4112 57.0977 68.3787C57.1302 68.3136 57.1302 68.2647 57.0977 68.2322C56.8698 67.9392 56.7396 67.7602 56.707 67.6951C56.707 67.63 56.6908 67.5649 56.6582 67.4998C56.4954 67.1417 56.3652 66.9301 56.2676 66.865C56.1699 66.7999 56.1211 66.686 56.1211 66.5232C55.8607 66.2628 55.7305 66.1163 55.7305 66.0837C55.6979 65.9861 55.6654 65.9047 55.6328 65.8396C55.6003 65.7745 55.6003 65.6768 55.6328 65.5466C55.6979 65.2862 55.7305 65.1397 55.7305 65.1072C55.763 65.0421 55.7793 64.977 55.7793 64.9119C55.8444 64.5863 55.877 64.3585 55.877 64.2283C55.877 64.0655 55.9583 63.9516 56.1211 63.8865C56.1862 63.7563 56.2513 63.6586 56.3164 63.5935C56.3815 63.5284 56.4466 63.447 56.5117 63.3494C56.6094 63.1866 56.6745 63.0727 56.707 63.0076C56.7396 62.9099 56.7721 62.8285 56.8047 62.7634C57.1628 62.3403 57.3906 61.9985 57.4883 61.738C57.6836 61.5102 57.7975 61.3962 57.8301 61.3962C57.8952 61.3637 57.9277 61.3311 57.9277 61.2986C58.0905 61.0382 58.1882 60.8917 58.2207 60.8591C58.2858 60.8266 58.3509 60.7778 58.416 60.7126L58.709 60.2244C58.8717 59.9639 58.9857 59.8175 59.0508 59.7849C59.1159 59.7198 59.1647 59.6547 59.1973 59.5896C59.3275 59.3292 59.474 59.1501 59.6367 59.0525C59.7995 58.727 59.8971 58.5642 59.9297 58.5642C59.9622 58.5317 59.9948 58.4828 60.0273 58.4177C60.2227 58.0922 60.3203 57.9457 60.3203 57.9783C60.3203 57.9783 60.3529 57.962 60.418 57.9294C60.5156 57.7667 60.5807 57.669 60.6133 57.6365C60.6458 57.6039 60.6947 57.5551 60.7598 57.49C60.8249 57.4249 60.8737 57.3435 60.9062 57.2458C60.9388 57.1156 61.0202 57.0505 61.1504 57.0505C61.3457 56.725 61.4759 56.5297 61.541 56.4646C61.6387 56.3995 61.7201 56.3181 61.7852 56.2205L62.0781 55.6833L62.7617 54.9509C62.9896 54.6254 63.1198 54.4626 63.1523 54.4626C63.3151 54.1697 63.4128 54.0232 63.4453 54.0232C63.4779 53.9906 63.5104 53.9581 63.543 53.9255C63.6732 53.6 63.7383 53.4373 63.7383 53.4373C63.7708 53.4373 63.7871 53.421 63.7871 53.3884C63.8522 53.3233 63.9173 53.2257 63.9824 53.0955C64.0801 52.9653 64.1777 52.8676 64.2754 52.8025C64.2754 52.6397 64.3242 52.5421 64.4219 52.5095C64.5521 52.4444 64.6172 52.3305 64.6172 52.1677L64.959 51.7283C65.0892 51.5655 65.1706 51.4353 65.2031 51.3376C65.2682 51.2074 65.3333 51.0935 65.3984 50.9958C65.5612 50.6703 65.6589 50.4913 65.6914 50.4587C65.7565 50.4262 65.8053 50.3774 65.8379 50.3123L66.2285 49.8728C66.2936 49.8077 66.3424 49.7263 66.375 49.6287C66.4076 49.4985 66.4727 49.4171 66.5703 49.3845C66.7331 49.0264 66.8307 48.8311 66.8633 48.7986C66.8958 48.7335 66.9284 48.6684 66.9609 48.6033C67.1562 48.3429 67.2539 48.1964 67.2539 48.1638C67.2865 48.0987 67.3353 48.0499 67.4004 48.0173C67.5306 47.7244 67.612 47.5616 67.6445 47.5291C67.8724 47.2035 68.0026 47.0082 68.0352 46.9431C68.1654 46.7153 68.2467 46.6013 68.2793 46.6013C68.3118 46.5688 68.3444 46.5199 68.377 46.4548C68.5072 46.1619 68.5885 46.0154 68.6211 46.0154C68.6862 45.9828 68.7513 45.9503 68.8164 45.9177C68.9792 45.8201 69.1419 45.7712 69.3047 45.7712C69.4674 45.7712 69.6465 45.7712 69.8418 45.7712C70.1348 45.8038 70.2812 45.8038 70.2812 45.7712C70.3138 45.7387 70.3626 45.7224 70.4277 45.7224C70.5254 45.7224 70.623 45.7387 70.7207 45.7712C70.8184 45.8038 70.8997 45.8201 70.9648 45.8201C71.1927 45.8526 71.4043 45.8689 71.5996 45.8689C71.8275 45.8363 72.0716 45.8038 72.332 45.7712C72.4948 45.7712 72.6576 45.7712 72.8203 45.7712C73.0156 45.7712 73.1947 45.755 73.3574 45.7224C73.5527 45.7224 73.6829 45.7224 73.748 45.7224C73.8457 45.6899 73.9271 45.6899 73.9922 45.7224C74.2526 45.7224 74.4805 45.7224 74.6758 45.7224C74.9036 45.6899 75.1478 45.6736 75.4082 45.6736C75.7988 45.641 76.0267 45.6248 76.0918 45.6248C76.1569 45.5922 76.2546 45.5922 76.3848 45.6248C76.7103 45.8201 76.9382 45.9503 77.0684 46.0154C77.1986 46.0805 77.2962 46.2921 77.3613 46.6501C77.3288 46.9757 77.3125 47.171 77.3125 47.2361C77.3451 47.2686 77.3613 47.3175 77.3613 47.3826C77.3613 47.4802 77.3451 47.5779 77.3125 47.6755C77.3125 47.7732 77.3125 47.8546 77.3125 47.9197C77.3125 48.0824 77.2962 48.2126 77.2637 48.3103C77.2637 48.3754 77.2474 48.4568 77.2148 48.5544C77.2148 48.9125 77.2148 49.0916 77.2148 49.0916C77.2148 49.1892 77.1986 49.2869 77.166 49.3845C77.166 49.4822 77.166 49.5798 77.166 49.6775C77.1335 50.2634 77.1172 50.6703 77.1172 50.8982C77.1497 51.0935 77.1335 51.3051 77.0684 51.533C77.0684 51.8259 77.0846 52.005 77.1172 52.0701C77.1497 52.1352 77.166 52.2003 77.166 52.2654V53.0466C77.1986 53.307 77.1986 53.5349 77.166 53.7302C77.1335 53.9255 77.1335 54.1534 77.166 54.4138C77.1986 54.7393 77.2148 55.0486 77.2148 55.3416C77.2148 55.602 77.2474 55.8624 77.3125 56.1228C77.2148 56.4809 77.1823 56.7738 77.2148 57.0017C77.2474 57.197 77.2637 57.3923 77.2637 57.5876C77.2637 57.7179 77.2637 57.8318 77.2637 57.9294C77.2637 58.0271 77.2637 58.1085 77.2637 58.1736L77.3613 60.9568C77.3939 61.0544 77.3939 61.1847 77.3613 61.3474C77.3613 61.4776 77.3613 61.6241 77.3613 61.7869L77.5078 63.447C77.5404 63.6098 77.5566 63.7888 77.5566 63.9841C77.5892 64.1469 77.638 64.3097 77.7031 64.4724ZM69.4023 57.6853C69.1745 57.9783 69.0443 58.1736 69.0117 58.2712C68.9792 58.3689 68.9303 58.4503 68.8652 58.5154C68.8001 58.5805 68.735 58.6456 68.6699 58.7107C68.6048 58.7758 68.5397 58.8409 68.4746 58.906C68.1491 59.2641 67.9375 59.5408 67.8398 59.7361C67.7422 59.8988 67.612 60.0453 67.4492 60.1755C67.4167 60.3057 67.3678 60.4034 67.3027 60.4685C67.2376 60.5336 67.1888 60.615 67.1562 60.7126C66.8958 60.9731 66.7493 61.1195 66.7168 61.1521C66.7168 61.1847 66.7005 61.2335 66.668 61.2986C66.4401 61.5916 66.2936 61.7869 66.2285 61.8845C66.196 61.9496 66.1471 62.031 66.082 62.1287C65.6263 62.5193 65.3008 62.8774 65.1055 63.2029C64.8451 63.4633 64.6986 63.6261 64.666 63.6912C64.6335 63.7563 64.6009 63.8214 64.5684 63.8865C64.373 64.0818 64.2591 64.2283 64.2266 64.3259C64.487 64.4887 64.6823 64.5538 64.8125 64.5212C64.9753 64.4887 65.1217 64.4724 65.252 64.4724C65.5775 64.5701 65.7402 64.6189 65.7402 64.6189C65.7402 64.5863 65.7565 64.5701 65.7891 64.5701H66.5215H67.1074H67.6445C67.9375 64.6352 68.1328 64.6677 68.2305 64.6677C68.3607 64.6352 68.4909 64.6189 68.6211 64.6189C68.7513 64.6189 68.8652 64.6026 68.9629 64.5701C69.0605 64.5375 69.1582 64.5212 69.2559 64.5212C69.3861 64.5212 69.5 64.5538 69.5977 64.6189C69.7279 64.6514 69.8581 64.6352 69.9883 64.5701C70.0208 64.4724 70.0208 64.391 69.9883 64.3259C69.9883 64.2283 69.9883 64.1143 69.9883 63.9841L70.0371 63.0076V62.4705C69.972 62.1775 69.9395 62.031 69.9395 62.031C69.972 61.9985 69.9883 61.9659 69.9883 61.9333C69.9883 61.6404 69.972 61.4939 69.9395 61.4939C69.9069 61.4613 69.8906 61.4125 69.8906 61.3474C69.9232 61.0544 69.9395 60.8917 69.9395 60.8591C69.972 60.8266 69.9883 60.7778 69.9883 60.7126C69.9557 60.3871 69.9395 60.1755 69.9395 60.0779C69.972 59.9477 69.9883 59.85 69.9883 59.7849C69.9883 59.2966 69.972 58.9874 69.9395 58.8572C69.9069 58.6944 69.8906 58.5479 69.8906 58.4177C69.9232 58.1573 69.9069 57.8969 69.8418 57.6365L69.4023 57.6853Z" fill="white"/>
<path d="M272.711 468.663C272.613 468.956 272.564 469.184 272.564 469.347C272.564 469.477 272.548 469.607 272.516 469.738C272.483 469.803 272.467 469.884 272.467 469.982C272.467 470.079 272.451 470.177 272.418 470.275C272.385 470.633 272.353 470.877 272.32 471.007C272.32 471.105 272.32 471.202 272.32 471.3C272.32 471.398 272.32 471.495 272.32 471.593C272.353 471.658 272.369 471.756 272.369 471.886C272.337 472.277 272.32 472.521 272.32 472.618C272.353 472.716 272.369 472.83 272.369 472.96C272.434 473.416 272.467 473.709 272.467 473.839C272.434 474.262 272.418 474.539 272.418 474.669C272.451 474.767 272.434 474.897 272.369 475.06C272.532 475.255 272.678 475.353 272.809 475.353C272.971 475.353 273.053 475.337 273.053 475.304C273.313 475.337 273.508 475.353 273.639 475.353C273.769 475.32 273.899 475.304 274.029 475.304C274.518 475.434 274.924 475.483 275.25 475.45C275.576 475.385 275.901 475.337 276.227 475.304C276.454 475.304 276.585 475.304 276.617 475.304C276.682 475.271 276.747 475.255 276.812 475.255C277.464 475.288 277.968 475.255 278.326 475.157C278.684 475.092 278.928 475.06 279.059 475.06C279.189 475.06 279.319 475.109 279.449 475.206C279.417 475.337 279.4 475.532 279.4 475.792L279.254 477.062C279.221 477.257 279.221 477.469 279.254 477.697C279.319 477.892 279.352 478.103 279.352 478.331C279.319 478.885 279.286 479.308 279.254 479.601C279.254 479.894 279.286 480.17 279.352 480.431C279.221 480.659 279.14 480.789 279.107 480.822C279.075 480.854 279.059 480.903 279.059 480.968C278.668 481.033 278.44 481.082 278.375 481.115C278.31 481.115 278.245 481.115 278.18 481.115C277.724 481.017 277.398 480.984 277.203 481.017C277.04 481.049 276.894 481.033 276.764 480.968C276.34 480.968 276.08 480.968 275.982 480.968C275.917 480.935 275.836 480.919 275.738 480.919C275.348 480.887 275.104 480.87 275.006 480.87C274.941 480.87 274.876 480.854 274.811 480.822C274.518 480.756 274.29 480.724 274.127 480.724C273.964 480.691 273.818 480.691 273.688 480.724C273.362 480.789 273.118 480.822 272.955 480.822C272.792 480.789 272.662 480.822 272.564 480.919C272.499 481.44 272.451 481.814 272.418 482.042C272.385 482.27 272.369 482.498 272.369 482.726C272.369 482.986 272.369 483.263 272.369 483.556C272.402 483.816 272.418 484.077 272.418 484.337C272.418 484.598 272.402 484.842 272.369 485.07C272.337 485.265 272.337 485.476 272.369 485.704C272.467 485.932 272.499 486.079 272.467 486.144C272.467 486.176 272.467 486.209 272.467 486.241C272.499 486.534 272.499 486.746 272.467 486.876C272.434 486.974 272.434 487.088 272.467 487.218C272.499 487.641 272.418 487.885 272.223 487.95C272.06 488.016 271.93 487.999 271.832 487.902C271.669 487.902 271.458 487.918 271.197 487.95C270.969 487.95 270.758 487.918 270.562 487.853C270.335 487.95 270.09 487.967 269.83 487.902C269.537 487.837 269.342 487.82 269.244 487.853C269.146 487.885 269.049 487.885 268.951 487.853C268.788 487.853 268.642 487.837 268.512 487.804C268.414 487.771 268.3 487.739 268.17 487.706C267.975 487.706 267.779 487.723 267.584 487.755C267.389 487.755 267.193 487.755 266.998 487.755C266.77 487.495 266.624 487.316 266.559 487.218C266.526 487.12 266.51 487.039 266.51 486.974C266.575 486.713 266.624 486.551 266.656 486.486C266.689 486.388 266.705 486.29 266.705 486.193C266.738 485.9 266.738 485.737 266.705 485.704C266.705 485.672 266.705 485.623 266.705 485.558C266.673 485.167 266.656 484.907 266.656 484.777C266.689 484.646 266.705 484.532 266.705 484.435C266.705 484.207 266.689 484.06 266.656 483.995C266.624 483.898 266.607 483.8 266.607 483.702C266.607 483.54 266.591 483.377 266.559 483.214C266.559 483.019 266.575 482.872 266.607 482.775C266.64 482.644 266.624 482.514 266.559 482.384C266.526 482.221 266.542 482.059 266.607 481.896C266.542 481.7 266.493 481.538 266.461 481.407C266.461 481.245 266.477 481.082 266.51 480.919C266.412 480.854 266.314 480.838 266.217 480.87C266.152 480.87 266.054 480.87 265.924 480.87C265.533 480.838 265.338 480.838 265.338 480.87C265.338 480.87 265.322 480.87 265.289 480.87C265.224 480.87 265.077 480.87 264.85 480.87C264.654 480.838 264.475 480.822 264.312 480.822L263.775 480.87C263.482 480.87 263.303 480.854 263.238 480.822C263.206 480.789 263.157 480.773 263.092 480.773L262.555 480.87C262.424 480.903 262.278 480.903 262.115 480.87C261.985 480.805 261.855 480.773 261.725 480.773C261.497 480.773 261.318 480.773 261.188 480.773C261.09 480.74 260.96 480.724 260.797 480.724C260.699 480.724 260.602 480.74 260.504 480.773C260.406 480.773 260.309 480.756 260.211 480.724C259.788 480.789 259.576 480.773 259.576 480.675C259.576 480.545 259.527 480.447 259.43 480.382C259.495 480.057 259.511 479.845 259.479 479.747C259.479 479.65 259.479 479.552 259.479 479.454C259.511 479.096 259.495 478.852 259.43 478.722C259.495 478.624 259.495 478.543 259.43 478.478C259.397 478.38 259.381 478.282 259.381 478.185C259.348 477.924 259.332 477.729 259.332 477.599C259.495 477.045 259.56 476.59 259.527 476.232C259.495 475.841 259.462 475.499 259.43 475.206C259.788 475.239 259.983 475.271 260.016 475.304C260.048 475.337 260.097 475.369 260.162 475.402C260.488 475.402 260.715 475.369 260.846 475.304C261.139 475.304 261.301 475.32 261.334 475.353C261.367 475.353 261.415 475.353 261.48 475.353C261.578 475.353 261.676 475.353 261.773 475.353C261.904 475.353 262.034 475.337 262.164 475.304H263.58C264.003 475.369 264.247 475.418 264.312 475.45C264.41 475.483 264.492 475.516 264.557 475.548C264.687 475.516 264.785 475.516 264.85 475.548C264.915 475.548 265.012 475.548 265.143 475.548L265.826 475.499C266.282 475.467 266.64 475.418 266.9 475.353C266.9 475.125 266.933 474.946 266.998 474.816C266.933 474.653 266.9 474.506 266.9 474.376C266.9 474.246 266.9 474.067 266.9 473.839C266.933 473.546 266.949 473.286 266.949 473.058C266.982 472.797 266.982 472.537 266.949 472.277C266.949 472.114 266.949 471.935 266.949 471.74C266.949 471.512 266.933 471.316 266.9 471.154C266.835 470.763 266.819 470.519 266.852 470.421C266.917 470.291 266.949 470.144 266.949 469.982C266.949 469.884 266.917 469.705 266.852 469.445C266.754 469.087 266.705 468.891 266.705 468.859C266.738 468.826 266.754 468.777 266.754 468.712C267.112 468.484 267.324 468.387 267.389 468.419C267.454 468.452 267.519 468.468 267.584 468.468C267.91 468.403 268.072 468.387 268.072 468.419C268.105 468.419 268.137 468.419 268.17 468.419C268.463 468.322 268.609 468.289 268.609 468.322C268.609 468.322 268.642 468.322 268.707 468.322C268.935 468.322 269.146 468.338 269.342 468.37C269.57 468.403 269.814 468.435 270.074 468.468C270.4 468.435 270.579 468.435 270.611 468.468C270.676 468.468 270.742 468.468 270.807 468.468C271.295 468.501 271.62 468.517 271.783 468.517C271.979 468.517 272.19 468.484 272.418 468.419L272.711 468.663ZM303.521 476.183C303.88 476.15 304.107 476.15 304.205 476.183C304.303 476.183 304.384 476.183 304.449 476.183C304.872 476.15 305.182 476.101 305.377 476.036C305.507 476.101 305.637 476.134 305.768 476.134C305.898 476.134 306.061 476.15 306.256 476.183C306.581 476.573 306.744 476.883 306.744 477.111C306.777 477.338 306.76 477.583 306.695 477.843C306.695 477.973 306.679 478.087 306.646 478.185C306.646 478.25 306.646 478.331 306.646 478.429C306.646 478.527 306.663 478.624 306.695 478.722C306.728 478.82 306.728 478.917 306.695 479.015L306.646 479.698C306.646 479.764 306.646 479.878 306.646 480.04C306.679 480.17 306.679 480.252 306.646 480.284C306.614 480.61 306.614 480.822 306.646 480.919C306.679 480.984 306.695 481.082 306.695 481.212C306.663 481.505 306.63 481.831 306.598 482.189C306.598 482.514 306.63 482.807 306.695 483.068C306.76 483.426 306.777 483.637 306.744 483.702C306.484 484.06 306.305 484.256 306.207 484.288C306.109 484.288 306.061 484.305 306.061 484.337C305.865 484.24 305.654 484.24 305.426 484.337C305.198 484.435 304.986 484.402 304.791 484.24C304.563 484.337 304.335 484.288 304.107 484.093C304.01 484.126 303.912 484.158 303.814 484.191C303.717 484.191 303.635 484.24 303.57 484.337C303.538 484.5 303.521 484.663 303.521 484.825C303.521 484.988 303.521 485.167 303.521 485.363C303.521 485.786 303.538 486.111 303.57 486.339C303.603 486.534 303.619 486.713 303.619 486.876C303.652 487.006 303.652 487.12 303.619 487.218C303.619 487.316 303.619 487.43 303.619 487.56C303.619 488.048 303.668 488.504 303.766 488.927C303.798 489.122 303.831 489.383 303.863 489.708C303.896 490.001 303.945 490.278 304.01 490.538C303.945 490.734 303.928 490.945 303.961 491.173C303.993 491.368 304.01 491.564 304.01 491.759C304.01 491.922 304.01 492.052 304.01 492.15C304.042 492.247 304.042 492.361 304.01 492.491V493.322C303.782 493.615 303.587 493.761 303.424 493.761C303.294 493.761 303.196 493.794 303.131 493.859C302.936 493.794 302.724 493.777 302.496 493.81C302.268 493.875 302.073 493.875 301.91 493.81C301.715 493.875 301.503 493.891 301.275 493.859C301.048 493.859 300.787 493.875 300.494 493.907H299.371C298.85 493.94 298.492 493.94 298.297 493.907C298.134 493.875 297.955 493.859 297.76 493.859C297.63 493.859 297.499 493.875 297.369 493.907C297.271 493.94 297.174 493.94 297.076 493.907C296.718 493.842 296.49 493.81 296.393 493.81C296.132 493.745 295.953 493.696 295.855 493.663C295.79 493.566 295.725 493.468 295.66 493.37C295.595 493.273 295.53 493.191 295.465 493.126C295.497 492.703 295.514 492.443 295.514 492.345C295.514 492.247 295.481 492.166 295.416 492.101C295.514 491.84 295.562 491.645 295.562 491.515C295.562 491.287 295.546 491.059 295.514 490.831C295.514 490.603 295.497 490.376 295.465 490.148C295.53 489.757 295.562 489.48 295.562 489.318C295.562 489.155 295.562 489.025 295.562 488.927C295.53 488.634 295.53 488.471 295.562 488.439C295.595 488.406 295.611 488.357 295.611 488.292C295.611 487.967 295.595 487.788 295.562 487.755C295.562 487.723 295.562 487.69 295.562 487.657C295.628 487.43 295.66 487.251 295.66 487.12C295.693 486.99 295.709 486.86 295.709 486.73C295.774 486.274 295.79 485.818 295.758 485.363C295.758 484.907 295.742 484.419 295.709 483.898C295.481 483.833 295.27 483.816 295.074 483.849C294.879 483.849 294.651 483.849 294.391 483.849C294.163 483.849 293.886 483.816 293.561 483.751L292.193 483.702C291.868 483.637 291.689 483.621 291.656 483.654C291.624 483.654 291.575 483.654 291.51 483.654C291.249 483.654 291.103 483.654 291.07 483.654C291.07 483.621 291.038 483.605 290.973 483.605C290.842 483.605 290.729 483.605 290.631 483.605C290.566 483.605 290.501 483.572 290.436 483.507C290.175 483.572 289.931 483.588 289.703 483.556C289.475 483.523 289.264 483.507 289.068 483.507C288.971 483.507 288.873 483.523 288.775 483.556C288.71 483.588 288.629 483.605 288.531 483.605C288.466 483.605 288.352 483.605 288.189 483.605C288.027 483.605 287.913 483.621 287.848 483.654C287.717 483.654 287.604 483.67 287.506 483.702C287.408 483.702 287.294 483.702 287.164 483.702C287.034 483.735 286.904 483.784 286.773 483.849C286.676 483.881 286.546 483.865 286.383 483.8C286.025 483.735 285.846 483.719 285.846 483.751C285.846 483.751 285.829 483.751 285.797 483.751C285.764 483.751 285.683 483.751 285.553 483.751C285.455 483.719 285.341 483.702 285.211 483.702C285.016 483.442 284.885 483.247 284.82 483.116C284.755 482.986 284.69 482.84 284.625 482.677C284.462 482.547 284.332 482.384 284.234 482.189C284.137 481.993 284.007 481.831 283.844 481.7C283.779 481.57 283.714 481.456 283.648 481.359C283.583 481.228 283.518 481.115 283.453 481.017C283.355 480.854 283.242 480.675 283.111 480.48C282.981 480.252 282.916 480.122 282.916 480.089C282.949 480.024 282.949 479.975 282.916 479.943C282.688 479.65 282.558 479.471 282.525 479.406C282.525 479.34 282.509 479.275 282.477 479.21C282.314 478.852 282.184 478.641 282.086 478.575C281.988 478.51 281.939 478.396 281.939 478.234C281.679 477.973 281.549 477.827 281.549 477.794C281.516 477.697 281.484 477.615 281.451 477.55C281.419 477.485 281.419 477.387 281.451 477.257C281.516 476.997 281.549 476.85 281.549 476.818C281.581 476.753 281.598 476.687 281.598 476.622C281.663 476.297 281.695 476.069 281.695 475.939C281.695 475.776 281.777 475.662 281.939 475.597C282.005 475.467 282.07 475.369 282.135 475.304C282.2 475.239 282.265 475.157 282.33 475.06C282.428 474.897 282.493 474.783 282.525 474.718C282.558 474.62 282.59 474.539 282.623 474.474C282.981 474.051 283.209 473.709 283.307 473.448C283.502 473.221 283.616 473.107 283.648 473.107C283.714 473.074 283.746 473.042 283.746 473.009C283.909 472.749 284.007 472.602 284.039 472.57C284.104 472.537 284.169 472.488 284.234 472.423L284.527 471.935C284.69 471.674 284.804 471.528 284.869 471.495C284.934 471.43 284.983 471.365 285.016 471.3C285.146 471.04 285.292 470.861 285.455 470.763C285.618 470.437 285.715 470.275 285.748 470.275C285.781 470.242 285.813 470.193 285.846 470.128C286.041 469.803 286.139 469.656 286.139 469.689C286.139 469.689 286.171 469.672 286.236 469.64C286.334 469.477 286.399 469.379 286.432 469.347C286.464 469.314 286.513 469.266 286.578 469.2C286.643 469.135 286.692 469.054 286.725 468.956C286.757 468.826 286.839 468.761 286.969 468.761C287.164 468.435 287.294 468.24 287.359 468.175C287.457 468.11 287.538 468.029 287.604 467.931L287.896 467.394L288.58 466.661C288.808 466.336 288.938 466.173 288.971 466.173C289.133 465.88 289.231 465.734 289.264 465.734C289.296 465.701 289.329 465.669 289.361 465.636C289.492 465.31 289.557 465.148 289.557 465.148C289.589 465.148 289.605 465.131 289.605 465.099C289.671 465.034 289.736 464.936 289.801 464.806C289.898 464.676 289.996 464.578 290.094 464.513C290.094 464.35 290.143 464.253 290.24 464.22C290.37 464.155 290.436 464.041 290.436 463.878L290.777 463.439C290.908 463.276 290.989 463.146 291.021 463.048C291.087 462.918 291.152 462.804 291.217 462.706C291.38 462.381 291.477 462.202 291.51 462.169C291.575 462.137 291.624 462.088 291.656 462.023L292.047 461.583C292.112 461.518 292.161 461.437 292.193 461.339C292.226 461.209 292.291 461.128 292.389 461.095C292.551 460.737 292.649 460.542 292.682 460.509C292.714 460.444 292.747 460.379 292.779 460.314C292.975 460.053 293.072 459.907 293.072 459.874C293.105 459.809 293.154 459.76 293.219 459.728C293.349 459.435 293.43 459.272 293.463 459.24C293.691 458.914 293.821 458.719 293.854 458.654C293.984 458.426 294.065 458.312 294.098 458.312C294.13 458.279 294.163 458.23 294.195 458.165C294.326 457.872 294.407 457.726 294.439 457.726C294.505 457.693 294.57 457.661 294.635 457.628C294.798 457.531 294.96 457.482 295.123 457.482C295.286 457.482 295.465 457.482 295.66 457.482C295.953 457.514 296.1 457.514 296.1 457.482C296.132 457.449 296.181 457.433 296.246 457.433C296.344 457.433 296.441 457.449 296.539 457.482C296.637 457.514 296.718 457.531 296.783 457.531C297.011 457.563 297.223 457.579 297.418 457.579C297.646 457.547 297.89 457.514 298.15 457.482C298.313 457.482 298.476 457.482 298.639 457.482C298.834 457.482 299.013 457.465 299.176 457.433C299.371 457.433 299.501 457.433 299.566 457.433C299.664 457.4 299.745 457.4 299.811 457.433C300.071 457.433 300.299 457.433 300.494 457.433C300.722 457.4 300.966 457.384 301.227 457.384C301.617 457.351 301.845 457.335 301.91 457.335C301.975 457.303 302.073 457.303 302.203 457.335C302.529 457.531 302.757 457.661 302.887 457.726C303.017 457.791 303.115 458.003 303.18 458.361C303.147 458.686 303.131 458.881 303.131 458.947C303.163 458.979 303.18 459.028 303.18 459.093C303.18 459.191 303.163 459.288 303.131 459.386C303.131 459.484 303.131 459.565 303.131 459.63C303.131 459.793 303.115 459.923 303.082 460.021C303.082 460.086 303.066 460.167 303.033 460.265C303.033 460.623 303.033 460.802 303.033 460.802C303.033 460.9 303.017 460.997 302.984 461.095C302.984 461.193 302.984 461.29 302.984 461.388C302.952 461.974 302.936 462.381 302.936 462.609C302.968 462.804 302.952 463.016 302.887 463.243C302.887 463.536 302.903 463.715 302.936 463.781C302.968 463.846 302.984 463.911 302.984 463.976V464.757C303.017 465.017 303.017 465.245 302.984 465.441C302.952 465.636 302.952 465.864 302.984 466.124C303.017 466.45 303.033 466.759 303.033 467.052C303.033 467.312 303.066 467.573 303.131 467.833C303.033 468.191 303.001 468.484 303.033 468.712C303.066 468.907 303.082 469.103 303.082 469.298C303.082 469.428 303.082 469.542 303.082 469.64C303.082 469.738 303.082 469.819 303.082 469.884L303.18 472.667C303.212 472.765 303.212 472.895 303.18 473.058C303.18 473.188 303.18 473.335 303.18 473.497L303.326 475.157C303.359 475.32 303.375 475.499 303.375 475.695C303.408 475.857 303.456 476.02 303.521 476.183ZM295.221 469.396C294.993 469.689 294.863 469.884 294.83 469.982C294.798 470.079 294.749 470.161 294.684 470.226C294.618 470.291 294.553 470.356 294.488 470.421C294.423 470.486 294.358 470.551 294.293 470.616C293.967 470.975 293.756 471.251 293.658 471.447C293.561 471.609 293.43 471.756 293.268 471.886C293.235 472.016 293.186 472.114 293.121 472.179C293.056 472.244 293.007 472.325 292.975 472.423C292.714 472.684 292.568 472.83 292.535 472.863C292.535 472.895 292.519 472.944 292.486 473.009C292.258 473.302 292.112 473.497 292.047 473.595C292.014 473.66 291.965 473.741 291.9 473.839C291.445 474.23 291.119 474.588 290.924 474.913C290.663 475.174 290.517 475.337 290.484 475.402C290.452 475.467 290.419 475.532 290.387 475.597C290.191 475.792 290.077 475.939 290.045 476.036C290.305 476.199 290.501 476.264 290.631 476.232C290.794 476.199 290.94 476.183 291.07 476.183C291.396 476.281 291.559 476.329 291.559 476.329C291.559 476.297 291.575 476.281 291.607 476.281H292.34H292.926H293.463C293.756 476.346 293.951 476.378 294.049 476.378C294.179 476.346 294.309 476.329 294.439 476.329C294.57 476.329 294.684 476.313 294.781 476.281C294.879 476.248 294.977 476.232 295.074 476.232C295.204 476.232 295.318 476.264 295.416 476.329C295.546 476.362 295.676 476.346 295.807 476.281C295.839 476.183 295.839 476.101 295.807 476.036C295.807 475.939 295.807 475.825 295.807 475.695L295.855 474.718V474.181C295.79 473.888 295.758 473.741 295.758 473.741C295.79 473.709 295.807 473.676 295.807 473.644C295.807 473.351 295.79 473.204 295.758 473.204C295.725 473.172 295.709 473.123 295.709 473.058C295.742 472.765 295.758 472.602 295.758 472.57C295.79 472.537 295.807 472.488 295.807 472.423C295.774 472.098 295.758 471.886 295.758 471.788C295.79 471.658 295.807 471.56 295.807 471.495C295.807 471.007 295.79 470.698 295.758 470.568C295.725 470.405 295.709 470.258 295.709 470.128C295.742 469.868 295.725 469.607 295.66 469.347L295.221 469.396Z" fill="white"/>
</svg>
